<svg width="197" height="181" viewBox="0 0 197 181" fill="none" xmlns="http://www.w3.org/2000/svg">
<rect width="197" height="181" fill="#E5E5E5"/>
<rect width="197" height="181" fill="black"/>
<path d="M75.3594 158.789C80 158.789 84.0547 157.383 87.5234 154.57C90.9922 151.758 92.9141 148.242 93.2891 144.023H105.594C105.359 148.383 103.859 152.531 101.094 156.469C98.3281 160.406 94.625 163.547 89.9844 165.891C85.3906 168.234 80.5156 169.406 75.3594 169.406C65 169.406 56.75 165.961 50.6094 159.07C44.5156 152.133 41.4688 142.664 41.4688 130.664V128.484C41.4688 121.078 42.8281 114.492 45.5469 108.727C48.2656 102.961 52.1562 98.4844 57.2188 95.2969C62.3281 92.1094 68.3516 90.5156 75.2891 90.5156C83.8203 90.5156 90.8984 93.0703 96.5234 98.1797C102.195 103.289 105.219 109.922 105.594 118.078H93.2891C92.9141 113.156 91.0391 109.125 87.6641 105.984C84.3359 102.797 80.2109 101.203 75.2891 101.203C68.6797 101.203 63.5469 103.594 59.8906 108.375C56.2812 113.109 54.4766 119.977 54.4766 128.977V131.438C54.4766 140.203 56.2812 146.953 59.8906 151.688C63.5 156.422 68.6562 158.789 75.3594 158.789ZM133.227 101.133C138.992 94.0547 146.492 90.5156 155.727 90.5156C171.805 90.5156 179.914 99.5859 180.055 117.727V168H167.047V117.656C167 112.172 165.734 108.117 163.25 105.492C160.812 102.867 156.992 101.555 151.789 101.555C147.57 101.555 143.867 102.68 140.68 104.93C137.492 107.18 135.008 110.133 133.227 113.789V168H120.219V60H133.227V101.133Z" fill="white"/>
</svg>
